<svg width="169" height="68" viewBox="0 0 169 68" fill="none" xmlns="http://www.w3.org/2000/svg">
<path d="M107.544 26.2167C106.944 26.2167 106.459 26.0437 106.09 25.6976C105.721 25.3515 105.536 24.9015 105.536 24.3478C105.536 23.794 105.721 23.3441 106.09 22.998C106.482 22.6288 106.967 22.4442 107.544 22.4442C108.12 22.4442 108.593 22.6288 108.963 22.998C109.355 23.3441 109.551 23.794 109.551 24.3478C109.551 24.9015 109.366 25.3515 108.997 25.6976C108.628 26.0437 108.143 26.2167 107.544 26.2167ZM106.263 28.4664H108.79V45.4256H106.263V28.4664Z" fill="white"/>
<path d="M129.824 44.4565C131.416 44.4565 132.789 44.0642 133.942 43.2797C135.096 42.4952 135.823 41.4569 136.123 40.1648H138.303C137.865 41.8953 136.884 43.2682 135.361 44.2834C133.839 45.2756 131.993 45.7717 129.824 45.7717C128.001 45.7717 126.397 45.414 125.013 44.6987C123.628 43.9604 122.556 42.9336 121.794 41.6184C121.056 40.3032 120.687 38.7688 120.687 37.0152C120.687 35.2385 121.056 33.6811 121.794 32.3428C122.556 30.9814 123.617 29.9431 124.978 29.2278C126.363 28.4895 127.955 28.1203 129.755 28.1203C132.431 28.1203 134.542 28.8817 136.088 30.4046C137.634 31.9275 138.453 34.0502 138.546 36.7729H123.213V36.946C123.213 39.2534 123.802 41.0877 124.978 42.4491C126.155 43.7873 127.77 44.4565 129.824 44.4565ZM129.789 29.4009C127.943 29.4009 126.455 29.9431 125.324 31.0276C124.217 32.089 123.548 33.5657 123.317 35.4577H136.192C135.915 33.5195 135.223 32.0313 134.115 30.993C133.031 29.9316 131.589 29.4009 129.789 29.4009ZM128.543 20.8867H130.689L134.842 26.0437H133.527L129.616 22.2365L125.705 26.0437H124.39L128.543 20.8867Z" fill="white"/>
<path d="M149.594 28.4664H152.121V31.5121C152.698 30.4508 153.575 29.6201 154.751 29.0202C155.928 28.4203 157.266 28.1203 158.766 28.1203C161.004 28.1203 162.77 28.6972 164.062 29.8508C165.354 31.0045 166 32.5735 166 34.5579V45.4256H163.473V34.2118C163.473 32.712 163.012 31.5352 162.089 30.6815C161.189 29.8278 159.931 29.4009 158.316 29.4009C156.447 29.4009 154.948 29.9893 153.817 31.166C152.686 32.3197 152.121 33.8541 152.121 35.7692V45.4256H149.594V28.4664Z" fill="white"/>
<g clip-path="url(#clip0_7_19286)">
<path d="M85.2752 37.0257C84.6308 38.7235 84.1185 40.4917 83.168 42.0373C81.7902 44.259 79.617 45.8603 77.0995 46.509C78.9749 45.3663 79.7412 43.0201 80.0395 40.831C80.3379 38.6418 80.333 36.3511 81.2642 34.3505C82.4561 31.791 85.2164 30.0582 88.0176 30.1078C89.4471 30.1331 91.0058 30.712 91.6232 32.0131C90.6477 31.1868 89.117 31.6505 88.1333 32.469C86.7433 33.6263 85.9191 35.3275 85.2752 37.0257ZM93.3087 35.4786C92.941 34.4263 91.9833 33.5831 90.8853 33.4455C89.6525 33.29 88.4384 34.002 87.6528 34.9727C86.8671 35.9433 86.4305 37.1468 86.0078 38.3264C86.6456 37.4672 87.5691 36.8685 88.609 36.6402C89.649 36.4118 90.7357 36.5691 91.67 37.0831C92.2778 37.418 92.8455 37.9803 92.8672 38.6783C93.4755 37.747 93.674 36.5314 93.3087 35.4786ZM94.6857 27.7505C92.4995 26.4824 89.4322 26.9058 87.7973 28.8446C90.3518 28.8198 92.8537 30.3858 93.9666 32.7033C95.0795 35.0208 94.744 37.9721 93.1405 39.976C95.4588 38.9738 97.2854 36.7842 97.671 34.2703C98.0566 31.7565 96.8695 29.0186 94.6833 27.75L94.6857 27.7505ZM87.231 25.1327C87.0666 23.6624 86.3369 22.3158 85.1986 21.3823C83.9531 20.3713 82.3207 19.9388 81.082 18.9186C80.5208 18.4511 80.0569 17.8762 79.717 17.227C79.3772 16.5778 79.1682 15.8672 79.1021 15.1361C78.279 16.2745 77.919 17.6873 78.0961 19.0848C78.2732 20.4823 78.9739 21.7584 80.0545 22.6514C81.4363 23.7931 83.3218 24.216 84.6091 25.4651C85.1033 25.9513 85.487 26.5398 85.7337 27.19C85.9805 27.8403 86.0843 28.5368 86.0382 29.2315C86.9523 28.0752 87.3805 26.6037 87.231 25.1327ZM88.1747 26.4936C89.7532 25.8642 91.2839 25.0622 92.5578 23.9307C93.8316 22.7991 94.8385 21.3143 95.2024 19.6423C95.8935 16.4694 94.2326 13.1025 95.051 9.96023C91.9664 12.1576 89.852 15.6868 89.3565 19.4615C89.0447 21.8377 89.316 24.3919 88.1747 26.4936ZM97.6546 24.8517C95.8829 23.9175 93.5097 24.3389 92.1602 25.8277C95.2534 25.6095 98.4046 27.2708 99.9917 29.9591C100.437 27.9911 99.4264 25.7859 97.6546 24.8517ZM100.846 18.9088C99.663 19.2287 98.4745 19.5869 97.419 20.2134C96.3634 20.8399 95.438 21.7653 95.0303 22.9299C97.5149 22.8628 99.8905 21.22 100.846 18.9088ZM84.9532 29.3588C84.484 27.7558 83.4909 26.3599 82.1354 25.3981C80.7799 24.4363 79.1417 23.965 77.487 24.0609C78.2977 25.5132 79.1325 26.9952 80.3764 28.0951C81.6204 29.195 83.3738 29.8497 84.9532 29.3588ZM82.3636 16.9753C83.2981 17.787 84.3961 18.3805 85.3889 19.1178C86.3818 19.8552 87.3033 20.7918 87.6513 21.9855C87.6812 20.7616 88.0229 19.5703 88.2388 18.3654C88.4548 17.1605 88.5377 15.8788 88.0735 14.7473C87.3669 13.0248 85.5909 12.0517 83.9584 11.1773C82.326 10.3029 80.576 9.23311 80.0121 7.45904C78.757 10.7063 79.7446 14.7011 82.3636 16.9753ZM89.9113 14.0236C90.0785 13.7844 90.0636 13.4559 89.9624 13.1813C89.8529 13.0741 89.7119 13.0056 89.5606 12.9859C89.4093 12.9662 89.2557 12.9963 89.1228 13.0719C88.7705 13.2372 88.6538 13.7645 88.9025 14.0654C89.1512 14.3662 89.6872 14.3439 89.9113 14.0236ZM85.4044 10.665C86.7225 11.8845 88.6177 12.4396 90.3788 12.1231C89.25 10.646 87.1395 10.0263 85.4044 10.665ZM88.0359 9.47954C87.7669 9.13596 87.4215 8.861 87.0276 8.67685C86.6338 8.4927 86.2025 8.40451 85.7687 8.41941C85.3348 8.43431 84.9105 8.55188 84.53 8.76263C84.1495 8.97338 83.8234 9.2714 83.5782 9.63264C85.0284 9.20864 86.5605 9.15602 88.0359 9.47954ZM82.8567 8.81851C82.7776 7.19512 81.8585 5.63977 80.4825 4.79891C80.6656 5.58776 80.8517 6.38536 81.2102 7.11055C81.5688 7.83573 82.1207 8.49383 82.8567 8.81851ZM77.0518 22.8405H77.0759C77.2825 22.8405 77.4806 22.7577 77.6266 22.6104C77.7727 22.4631 77.8547 22.2633 77.8547 22.055C77.8547 21.8467 77.7727 21.6469 77.6266 21.4996C77.4806 21.3523 77.2825 21.2696 77.0759 21.2696H77.0277C76.8211 21.2696 76.623 21.3523 76.4769 21.4996C76.3309 21.6469 76.2488 21.8467 76.2488 22.055C76.2488 22.2633 76.3309 22.4631 76.4769 22.6104C76.623 22.7577 76.8211 22.8405 77.0277 22.8405H77.0518ZM80.6184 32.7364C81.3775 32.0671 81.6965 30.9331 81.3997 29.961C80.561 30.5647 80.2198 31.7789 80.6184 32.7364ZM74.0631 40.8295C73.7638 38.6423 73.7691 36.3496 72.8379 34.3491C71.6465 31.7895 68.8881 30.0568 66.0845 30.1064C64.655 30.1316 63.0963 30.7105 62.4789 32.0117C63.4549 31.1854 64.9851 31.6491 65.9693 32.4676C67.3598 33.6244 68.184 35.3255 68.8284 37.0238C69.4728 38.722 69.9851 40.4898 70.9356 42.0354C72.3131 44.2571 74.4861 45.8585 77.0036 46.507C75.1287 45.3668 74.3619 43.0206 74.0631 40.8295ZM63.2187 33.4416C62.1208 33.5801 61.1636 34.4225 60.7954 35.4748C60.4271 36.527 60.6262 37.7431 61.2359 38.6744C61.2571 37.9764 61.8249 37.4141 62.4326 37.0792C63.367 36.5646 64.454 36.4069 65.4943 36.635C66.5346 36.863 67.4586 37.4617 68.0967 38.321C67.6736 37.1429 67.2369 35.9394 66.4513 34.9673C65.6657 33.9952 64.453 33.29 63.2202 33.4455L63.2187 33.4416ZM60.1394 32.7028C61.2518 30.3854 63.7542 28.8193 66.3086 28.8441C64.6757 26.9053 61.607 26.4819 59.4203 27.75C57.2336 29.0181 56.0547 31.7555 56.4379 34.2679C56.821 36.7803 58.6477 38.9714 60.9684 39.9736C59.3625 37.9716 59.027 35.0203 60.1394 32.7028ZM69.4949 25.4671C70.7823 24.2179 72.6678 23.7951 74.0496 22.6533C75.1305 21.7601 75.8314 20.4836 76.0083 19.0856C76.1852 17.6877 75.8248 16.2745 75.001 15.1361C74.9349 15.8672 74.7259 16.5778 74.386 17.227C74.0462 17.8762 73.5823 18.4511 73.0211 18.9186C71.7824 19.9393 70.1499 20.3713 68.9045 21.3823C68.3381 21.8422 67.867 22.41 67.5183 23.0535C67.1695 23.697 66.9499 24.4035 66.872 25.1326C66.7942 25.8617 66.8595 26.5992 67.0644 27.3028C67.2692 28.0065 67.6095 28.6625 68.0659 29.2334C68.0197 28.5388 68.1236 27.8422 68.3703 27.192C68.617 26.5417 69.0007 25.9532 69.4949 25.4671ZM58.9007 19.6428C59.2646 21.3148 60.2719 22.7991 61.5453 23.9312C62.8187 25.0632 64.3499 25.8646 65.9284 26.4941C64.7875 24.3924 65.0584 21.8377 64.7466 19.462C64.2511 15.6873 62.1357 12.1581 59.0525 9.96072C59.8705 13.103 58.2096 16.4699 58.9007 19.6428ZM61.941 25.8282C60.5915 24.3394 58.2207 23.918 56.4465 24.8522C54.6724 25.7864 53.6646 27.9911 54.1075 29.9557C55.6966 27.2713 58.8477 25.61 61.941 25.8282ZM59.0728 22.9275C58.665 21.761 57.7406 20.8375 56.6846 20.211C55.6286 19.5844 54.4401 19.2262 53.2568 18.9088C54.2126 21.22 56.5882 22.8628 59.0728 22.9275ZM76.6166 24.0624C74.962 23.9663 73.3238 24.4373 71.9682 25.3988C70.6127 26.3604 69.6194 27.756 69.1499 29.3588C70.7293 29.8497 72.4827 29.1916 73.7286 28.0951C74.9745 26.9986 75.8054 25.5147 76.6161 24.0609L76.6166 24.0624ZM70.1446 11.1768C68.5122 12.0517 66.7366 13.0238 66.0296 14.7468C65.5654 15.8783 65.6488 17.1605 65.8647 18.3649C66.0807 19.5694 66.4219 20.7612 66.4518 21.985C66.7998 20.7918 67.7213 19.8552 68.7142 19.1173C69.707 18.3795 70.8054 17.7866 71.7395 16.9749C74.359 14.7006 75.3461 10.7049 74.0915 7.45807C73.5276 9.23651 71.7771 10.3024 70.1446 11.1768ZM79.3725 33.4795C79.4814 32.3368 79.5301 31.1562 79.1672 30.068C78.8539 29.1284 78.1733 28.2652 77.273 27.9109C77.273 27.9109 77.1241 27.8482 77.0518 27.8696C76.979 27.8482 76.8301 27.9109 76.8301 27.9109C75.9302 28.2652 75.2492 29.126 74.9359 30.068C74.5735 31.1562 74.6217 32.3368 74.7311 33.4795C75.0685 37.0248 75.949 40.4883 76.8826 43.9295C76.8826 43.9295 77.0421 44.5458 77.0518 44.5492C77.059 44.5799 77.2205 43.9295 77.2205 43.9295C78.1541 40.4893 79.0337 37.0248 79.3725 33.4795ZM77.0518 15.0069C77.0518 15.0209 77.1342 14.8508 77.1342 14.8508C78.6013 12.0089 78.6437 8.46516 77.2822 5.57415C77.2822 5.57415 77.059 5.13671 77.0518 5.11581C77.059 5.15178 76.8209 5.57415 76.8209 5.57415C75.4594 8.46516 75.5018 12.007 76.9699 14.8508C76.9699 14.8508 77.0335 15.0122 77.0518 15.0069ZM64.1407 13.1813C64.0395 13.4559 64.0251 13.7844 64.1923 14.0236C64.4159 14.3439 64.9514 14.3638 65.2006 14.0654C65.4498 13.7669 65.3326 13.2391 64.9803 13.0719C64.8474 12.9963 64.6938 12.9662 64.5425 12.9859C64.3912 13.0056 64.2502 13.0741 64.1407 13.1813ZM68.7011 10.665C66.966 10.0263 64.8531 10.6451 63.7267 12.1231C65.4878 12.4396 67.3829 11.8845 68.7011 10.665ZM70.5249 9.6307C70.2795 9.26958 69.9534 8.97171 69.5728 8.76114C69.1922 8.55056 68.7678 8.43318 68.3339 8.41847C67.9001 8.40376 67.4689 8.49213 67.0751 8.67644C66.6813 8.86076 66.3361 9.13586 66.0672 9.47954C67.5424 9.15539 69.0746 9.20734 70.5249 9.6307ZM72.8929 7.11055C73.2514 6.38536 73.4375 5.58776 73.6206 4.79891C72.2465 5.63977 71.3255 7.19512 71.2464 8.81851C71.9829 8.49383 72.5357 7.83621 72.8929 7.11055ZM73.4857 32.7364C73.8843 31.7789 73.5425 30.5647 72.7044 29.961C72.4075 30.9331 72.7285 32.0671 73.4857 32.7364ZM74.9456 6.38439C75.2131 5.44341 75.6105 4.545 76.1259 3.71551C76.4228 3.23724 76.7583 2.78279 77.0518 2.30598C77.3448 2.78522 77.6783 3.23967 77.9777 3.71794C78.4928 4.54756 78.8899 5.44594 79.1575 6.38682C79.1503 5.0745 79.2539 3.73593 78.9108 2.47026C78.7093 1.73244 77.272 -0.09898 77.0518 0.00843623C76.8325 -0.09898 75.3938 1.73244 75.1923 2.47026C74.8492 3.7335 74.9528 5.07207 74.9456 6.38439Z" fill="#E1D8A5"/>
</g>
<path d="M85.2753 36.7999C84.6309 38.4976 84.1185 40.2659 83.1681 41.8115C81.7903 44.0331 79.6171 45.6344 77.0996 46.2831C78.9749 45.1404 79.7413 42.7943 80.0396 40.6051C80.3379 38.416 80.3331 36.1252 81.2643 34.1247C82.4562 31.5651 85.2165 29.8324 88.0177 29.882C89.4472 29.9072 91.0059 30.4861 91.6233 31.7873C90.6478 30.961 89.1171 31.4247 88.1334 32.2432C86.7433 33.4005 85.9192 35.1016 85.2753 36.7999ZM88.1748 26.2677C89.7533 25.6383 91.284 24.8363 92.5579 23.7048C93.8317 22.5733 94.8385 21.0884 95.2024 19.4164C95.8936 16.2435 94.2327 12.8767 95.0511 9.73438C91.9665 11.9318 89.8521 15.461 89.3566 19.2356C89.0448 21.6119 89.3161 24.1661 88.1748 26.2677ZM74.0632 40.6037C73.7638 38.4165 73.7691 36.1238 72.838 34.1232C71.6465 31.5637 68.8882 29.8309 66.0846 29.8805C64.6551 29.9058 63.0964 30.4847 62.479 31.7858C63.455 30.9595 64.9852 31.4232 65.9694 32.2417C67.3599 33.3985 68.1841 35.0997 68.8285 36.7979C69.4729 38.4962 69.9852 40.2639 70.9356 41.8095C72.3132 44.0313 74.4862 45.6326 77.0037 46.2812C75.1288 45.1409 74.362 42.7948 74.0632 40.6037ZM58.9008 19.4169C59.2647 21.0889 60.272 22.5733 61.5454 23.7053C62.8188 24.8373 64.35 25.6388 65.9284 26.2682C64.7876 24.1665 65.0585 21.6119 64.7466 19.2361C64.2512 15.4615 62.1358 11.9323 59.0526 9.73486C59.8705 12.8772 58.2097 16.244 58.9008 19.4169Z" fill="white"/>
<path d="M7.40664 45.7724C4.93776 45.7724 3.08033 45.3225 1.83436 44.4226C0.611452 43.4997 0 42.2076 0 40.5463C0 38.7927 0.72682 37.4429 2.18046 36.4968C3.6341 35.5508 5.7338 35.0778 8.47957 35.0778H13.0135V33.9357C13.0135 32.6435 12.6559 31.6514 11.9406 30.9592C11.2253 30.2669 10.1986 29.9208 8.86028 29.9208C7.54508 29.9208 6.49523 30.2554 5.71073 30.9245C4.9493 31.5937 4.47629 32.5743 4.2917 33.8664H0.484547C0.738357 31.9975 1.62669 30.5784 3.14955 29.6093C4.67242 28.6172 6.73751 28.1211 9.34483 28.1211C12.206 28.1211 14.3864 28.6518 15.8862 29.7132C17.386 30.7746 18.1359 32.309 18.1359 34.3164V39.7848C18.1359 41.8845 18.3089 43.765 18.6551 45.4263H13.8788C13.6481 44.5495 13.4866 43.7766 13.3943 43.1074C12.7251 44.0535 11.8599 44.7341 10.7985 45.1495C9.76016 45.5648 8.62955 45.7724 7.40664 45.7724ZM8.47957 44.0419C9.91013 44.0419 11.0177 43.6612 11.8022 42.8998C12.6098 42.1153 13.0135 41.077 13.0135 39.7848V36.8775H9.93321C8.38727 36.8775 7.19898 37.2006 6.36833 37.8466C5.53768 38.4696 5.12235 39.358 5.12235 40.5116C5.12235 41.6884 5.39924 42.5767 5.953 43.1767C6.52984 43.7535 7.37203 44.0419 8.47957 44.0419Z" fill="white"/>
<path d="M30.0868 28.4672H35.2091V31.2706C35.7398 30.3016 36.5474 29.5401 37.6319 28.9864C38.7394 28.4095 39.9738 28.1211 41.3352 28.1211C43.5964 28.1211 45.3731 28.6979 46.6652 29.8516C47.9804 31.0053 48.638 32.5974 48.638 34.6279V45.4263H43.5157V34.3164C43.5157 31.386 42.2928 29.9208 39.8469 29.9208C38.4164 29.9208 37.2858 30.4515 36.4551 31.5129C35.6245 32.5743 35.2091 34.0049 35.2091 35.8046V45.4263H30.0868V28.4672Z" fill="white"/>
<path d="M5.27051 53.4727C8.18945 53.4727 10.0283 55.4346 10.0283 58.5791C10.0283 61.7168 8.18945 63.6787 5.27051 63.6787C2.34473 63.6787 0.512695 61.7168 0.512695 58.5791C0.512695 55.4346 2.34473 53.4727 5.27051 53.4727ZM5.27051 55.1953C3.65723 55.1953 2.61816 56.5078 2.61816 58.5791C2.61816 60.6436 3.65039 61.9492 5.27051 61.9492C6.88379 61.9492 7.91602 60.6436 7.91602 58.5791C7.91602 56.5078 6.88379 55.1953 5.27051 55.1953ZM19.7304 63.5078V56.1797H21.6582V57.4854H21.6992C22.0888 56.5762 22.8613 56.043 23.9892 56.043C25.6162 56.043 26.5322 57.0684 26.5322 58.7842V63.5078H24.5361V59.2012C24.5361 58.2441 24.0849 57.6973 23.1894 57.6973C22.2939 57.6973 21.7265 58.3535 21.7265 59.3037V63.5078H19.7304ZM36.3847 63.5078V53.6436H38.3808V63.5078H36.3847ZM48.3016 63.5078V56.1797H50.2977V63.5078H48.3016ZM49.2997 55.373C48.6981 55.373 48.2333 54.915 48.2333 54.3408C48.2333 53.7598 48.6981 53.3086 49.2997 53.3086C49.9012 53.3086 50.3661 53.7598 50.3661 54.3408C50.3661 54.915 49.9012 55.373 49.2997 55.373ZM60.1707 63.5078V56.1797H62.0985V57.4854H62.1395C62.5291 56.5762 63.3016 56.043 64.4295 56.043C66.0565 56.043 66.9725 57.0684 66.9725 58.7842V63.5078H64.9764V59.2012C64.9764 58.2441 64.5252 57.6973 63.6297 57.6973C62.7342 57.6973 62.1668 58.3535 62.1668 59.3037V63.5078H60.1707ZM80.0652 57.499C79.1902 57.499 78.5613 58.1621 78.493 59.0781H81.6033C81.5623 58.1416 80.9539 57.499 80.0652 57.499ZM81.6307 61.2656H83.4627C83.2439 62.7012 81.9314 63.665 80.1199 63.665C77.8641 63.665 76.5105 62.2227 76.5105 59.8779C76.5105 57.54 77.8777 56.0225 80.0447 56.0225C82.1775 56.0225 83.5242 57.4648 83.5242 59.6934V60.3018H78.4725V60.4248C78.4725 61.4707 79.1355 62.1885 80.1541 62.1885C80.8855 62.1885 81.4461 61.8262 81.6307 61.2656ZM110.489 56.7676L108.616 63.5078H106.668L104.056 53.6436H106.196L107.748 60.7871H107.802L109.648 53.6436H111.391L113.237 60.7871H113.292L114.85 53.6436H116.99L114.372 63.5078H112.424L110.551 56.7676H110.489ZM126.507 63.5078V56.1797H128.504V63.5078H126.507ZM127.506 55.373C126.904 55.373 126.439 54.915 126.439 54.3408C126.439 53.7598 126.904 53.3086 127.506 53.3086C128.107 53.3086 128.572 53.7598 128.572 54.3408C128.572 54.915 128.107 55.373 127.506 55.373ZM138.424 63.5078V53.6436H140.421V63.5078H138.424ZM150.355 63.5078V53.6436H152.351V63.5078H150.355ZM162.115 58.333C162.115 56.9385 163.325 56.0225 165.205 56.0225C167.044 56.0225 168.24 56.9521 168.267 58.374H166.428C166.387 57.7861 165.916 57.4238 165.177 57.4238C164.487 57.4238 164.036 57.7383 164.036 58.21C164.036 58.5723 164.35 58.8184 164.993 58.9688L166.394 59.2695C167.864 59.5977 168.459 60.1787 168.459 61.2725C168.459 62.7148 167.132 63.665 165.198 63.665C163.243 63.665 162.04 62.7217 161.93 61.293H163.878C163.974 61.9082 164.46 62.2637 165.253 62.2637C166.011 62.2637 166.469 61.9629 166.469 61.4844C166.469 61.1152 166.223 60.9102 165.567 60.7529L164.213 60.4521C162.826 60.1377 162.115 59.4131 162.115 58.333Z" fill="#E1D8A5"/>
<defs>
<clipPath id="clip0_7_19286">
<rect width="47.5894" height="46.5078" fill="white" transform="translate(53.2568)"/>
</clipPath>
</defs>
</svg>
