<svg width="32" height="32" viewBox="0 0 32 32" fill="none" xmlns="http://www.w3.org/2000/svg">
<path d="M21.5867 2.66666H10.4133C5.56 2.66666 2.66667 5.55999 2.66667 10.4133V21.5733C2.66667 26.44 5.56 29.3333 10.4133 29.3333H21.5733C26.4267 29.3333 29.32 26.44 29.32 21.5867V10.4133C29.3333 5.55999 26.44 2.66666 21.5867 2.66666ZM22.6667 23H9.33334C8.78667 23 8.33334 22.5467 8.33334 22C8.33334 21.4533 8.78667 21 9.33334 21H22.6667C23.2133 21 23.6667 21.4533 23.6667 22C23.6667 22.5467 23.2133 23 22.6667 23ZM22.6667 17H9.33334C8.78667 17 8.33334 16.5467 8.33334 16C8.33334 15.4533 8.78667 15 9.33334 15H22.6667C23.2133 15 23.6667 15.4533 23.6667 16C23.6667 16.5467 23.2133 17 22.6667 17ZM22.6667 11H9.33334C8.78667 11 8.33334 10.5467 8.33334 9.99999C8.33334 9.45332 8.78667 8.99999 9.33334 8.99999H22.6667C23.2133 8.99999 23.6667 9.45332 23.6667 9.99999C23.6667 10.5467 23.2133 11 22.6667 11Z" fill="#459CD1"/>
</svg>
